<svg fill="#000000" xmlns="http://www.w3.org/2000/svg"  viewBox="0 0 128 128" width="64px" height="64px"><path d="M110.3 84.8c-1.2-.7-2.6-.5-3.6.5l-35 34.6c-.8.8-1.8 1.2-2.8 1.2-2.5 0-3.5-1.9-3.7-2.5-.2-.6-.9-2.6.9-4.4L95 85.7c.8-.8 1.2-1.2 1.3-2.1.2-1.6-.9-3.1-2.5-3.4-5-.8-12.3-2-20.2-2-9.3 0-17.1 2.2-23.4 5.2-9.5 4.5-18.6 13-25.9 19.8-1.9 1.8-4 3.8-5.9 5.4-1.3 1.1-2.7 2.1-4.3 2.8 0 0 0 0 0 0-.7.4-1.6.5-2.4.3-.4-.1-.7-.3-1-.6C9 109.4 7 104.1 7 88.2c0-1.6-1.2-3.1-2.8-3.1C2.4 84.9 1 86.3 1 88c0 15.2 2.3 23.2 5.6 27.4C8.2 117.5 17.8 127 29 127h39.9H124c1.7 0 3-1.3 3-3v-9.2C127 101.1 121.4 91 110.3 84.8zM4 77h22c1.7 0 3-1.3 3-3V44c0-1.7-1.3-3-3-3H4c-1.7 0-3 1.3-3 3v30C1 75.7 2.3 77 4 77zM7 47h16v24H7V47zM42.1 40h41.5c6.1 0 11.9-2.4 16.3-6.7.1-.1.2-.2.2-.3l.9-1.2v9.7c0 11.9-9.7 22.3-21.5 22.5-9.2.2-17.4-5.3-20.9-13.8-.6-1.5-2.2-2.3-3.8-1.8-1.7.5-2.5 2.4-1.9 4C57.3 63.2 67.8 70.2 79.5 70 94.9 69.7 107 56.8 107 41.4v-18l4.9-18.6c.2-.9 0-1.9-.5-2.6S109.9 1 109 1H50v0c-.7 0-1.4.2-2.1 1-.8.9-1 2.2-.7 3.3l2.2 8.5c.3 1.3 1.5 2.2 2.9 2.2h20.9c1.5 0 2.8 1 3.1 2.4.4 1.9-1.1 3.6-2.9 3.6h-21c-.6 0-1.3.2-1.8.6l-11.3 8.3c-1.5 1.1-2.3 2.8-2.1 4.6C37.4 38.1 39.6 40 42.1 40z"/></svg>